# xmcd CD database file
#
# Track frame offsets:
#	150
#	11508
#	26249
#	40798
#	54276
#	67151
#	79305
#	92505
#	104699
#	120749
#	142346
#	156075
#	171676
#	183712
#	204086
#	219155
#
# Disc length: 3094 seconds
#
# Revision: 0
# Processed by: cddbd v1.5.2PL0 Copyright (c) Steve Scherf et al.
# Submitted via: CDex 1.51
#
DISCID=e80c1410
DTITLE=Various Artist - Jazz - The Essential Collection disc11
DYEAR=1900
DGENRE=Jazz
TTITLE0=Harry James and His Orchestra - Ciribiribin
TTITLE1=Les Brown and His Band Of Renown - 'Tain't Me
TTITLE2=Duke Ellington and His Famous Orchestra - I've Got It Bad and That Ain't Good
TTITLE3=Nat 'King' Cole - Get Your Kicks On Route 66
TTITLE4=Teddy Wilson and His Orchestra (feat. Billie Holiday) - My Man (Mon Homme)
TTITLE5=Benny Goodman - Mission To Moscow
TTITLE6=Tommy Dorsey and His Orchestra - Opus No. 1
TTITLE7=Johnny Mercer - My Sugar Is So Refined
TTITLE8=Spike Jones - Dance Of The Hours
TTITLE9=Woody Herman - Northwest Passage
TTITLE10=The Mills Brothers - Put Another Chair At The Table
TTITLE11=Jimmy Dorsey and His Orchestra - Dream
TTITLE12=Julia Lee - King Size Papa
TTITLE13=Louis Jordon - Saturday Night Fish Fry
TTITLE14=Lena Horne - One For My Baby
TTITLE15=Cab Calloway (feat. Dizzy Gillespie) - Bye Bye Blues
EXTD=
EXTT0=
EXTT1=
EXTT2=
EXTT3=
EXTT4=
EXTT5=
EXTT6=
EXTT7=
EXTT8=
EXTT9=
EXTT10=
EXTT11=
EXTT12=
EXTT13=
EXTT14=
EXTT15=
PLAYORDER=
